<svg xmlns="http://www.w3.org/2000/svg" xmlns:xlink="http://www.w3.org/1999/xlink" width="255.8378448486328" height="253.63734436035156" viewBox="0 0 255.8378448486328 253.63734436035156" fill="none"><g opacity="1"  transform="translate(0 0)  rotate(0)"><path id="路径 1" fill-rule="evenodd" style="fill:#2E54FF" opacity="1" d="M20 125.08L105.08 125.08C116.13 125.08 125.08 116.13 125.08 105.08L125.08 20C125.08 8.95 116.13 0 105.08 0L20 0C8.95 0 0 8.95 0 20L0 105.08C0 116.13 8.95 125.08 20 125.08Z"></path><path id="路径 2" fill-rule="evenodd" style="fill:#0132AB" opacity="1" d="M150.525 126.007L235.605 126.007C246.655 126.007 255.605 117.057 255.605 106.007L255.605 20.9265C255.605 9.87653 246.655 0.926529 235.605 0.926529L150.525 0.926529C139.475 0.926529 130.525 9.87653 130.525 20.9265L130.525 106.007C130.525 117.057 139.475 126.007 150.525 126.007Z"></path><path id="路径 3" fill-rule="evenodd" style="fill:#002CF0" opacity="1" d="M21.1581 253.636L106.238 253.636C117.288 253.636 126.238 244.686 126.238 233.636L126.238 148.556C126.238 137.506 117.288 128.556 106.238 128.556L21.1581 128.556C10.1081 128.556 1.15814 137.506 1.15814 148.556L1.15814 233.636C1.15814 244.686 10.1081 253.636 21.1581 253.636Z"></path><path id="路径 4" fill-rule="evenodd" style="fill:#0023BD" opacity="1" d="M150.756 253.404L235.836 253.404C246.886 253.404 255.836 244.454 255.836 233.404L255.836 148.324C255.836 137.274 246.886 128.324 235.836 128.324L150.756 128.324C139.706 128.324 130.756 137.274 130.756 148.324L130.756 233.404C130.756 244.454 139.706 253.404 150.756 253.404Z"></path></g></svg>